<?xml version="1.0" encoding="utf-8"?>
<!-- Generator: Adobe Illustrator 16.0.0, SVG Export Plug-In . SVG Version: 6.00 Build 0)  -->
<!DOCTYPE svg PUBLIC "-//W3C//DTD SVG 1.1//EN" "http://www.w3.org/Graphics/SVG/1.1/DTD/svg11.dtd">
<svg version="1.1" id="Capa_1" xmlns="http://www.w3.org/2000/svg" xmlns:xlink="http://www.w3.org/1999/xlink" x="0px" y="0px"
	 width="323.119px" height="98.775px" viewBox="0 0 323.119 98.775" enable-background="new 0 0 323.119 98.775"
	 xml:space="preserve">
<g>
	<g>
		<path fill="#121B21" d="M156.39,78.605c-0.183-0.131-0.313-0.352-0.313-0.611c0-0.415,0.338-0.74,0.754-0.74
			c0.221,0,0.363,0.065,0.467,0.143c0.754,0.598,1.559,0.936,2.545,0.936c0.987,0,1.61-0.467,1.61-1.143v-0.025
			c0-0.65-0.363-1-2.052-1.391c-1.935-0.467-3.025-1.038-3.025-2.713v-0.026c0-1.558,1.299-2.636,3.104-2.636
			c1.143,0,2.064,0.299,2.883,0.844c0.182,0.104,0.351,0.324,0.351,0.637c0,0.415-0.338,0.74-0.753,0.74
			c-0.156,0-0.286-0.039-0.416-0.117c-0.701-0.455-1.376-0.688-2.09-0.688c-0.936,0-1.48,0.48-1.48,1.077v0.027
			c0,0.701,0.415,1.012,2.168,1.428c1.922,0.467,2.908,1.156,2.908,2.662v0.025c0,1.701-1.337,2.715-3.246,2.715
			C158.571,79.748,157.402,79.357,156.39,78.605z"/>
		<path fill="#121B21" d="M164.248,71.256c0-0.442,0.351-0.793,0.805-0.793c0.441,0,0.793,0.351,0.793,0.793v7.635
			c0,0.441-0.352,0.792-0.793,0.792c-0.454,0-0.805-0.351-0.805-0.792V71.256z"/>
		<path fill="#121B21" d="M167.261,78.605c-0.183-0.131-0.313-0.352-0.313-0.611c0-0.415,0.338-0.74,0.754-0.74
			c0.221,0,0.363,0.065,0.467,0.143c0.754,0.598,1.559,0.936,2.545,0.936c0.987,0,1.61-0.467,1.61-1.143v-0.025
			c0-0.65-0.363-1-2.052-1.391c-1.935-0.467-3.025-1.038-3.025-2.713v-0.026c0-1.558,1.299-2.636,3.104-2.636
			c1.143,0,2.064,0.299,2.883,0.844c0.182,0.104,0.351,0.324,0.351,0.637c0,0.415-0.338,0.74-0.753,0.74
			c-0.156,0-0.286-0.039-0.416-0.117c-0.701-0.455-1.376-0.688-2.09-0.688c-0.936,0-1.48,0.48-1.48,1.077v0.027
			c0,0.701,0.415,1.012,2.168,1.428c1.922,0.467,2.908,1.156,2.908,2.662v0.025c0,1.701-1.337,2.715-3.246,2.715
			C169.442,79.748,168.273,79.357,167.261,78.605z"/>
		<path fill="#121B21" d="M177.066,72.008h-2.207c-0.416,0-0.74-0.337-0.74-0.74c0-0.402,0.324-0.74,0.74-0.74h6.038
			c0.402,0,0.728,0.338,0.728,0.74c0,0.403-0.325,0.74-0.728,0.74h-2.221v6.883c0,0.441-0.363,0.792-0.806,0.792
			c-0.441,0-0.805-0.351-0.805-0.792V72.008z"/>
		<path fill="#121B21" d="M182.469,78.813v-7.479c0-0.454,0.351-0.806,0.806-0.806h5.285c0.389,0,0.714,0.325,0.714,0.715
			c0,0.402-0.325,0.715-0.714,0.715h-4.494v2.363h3.909c0.39,0,0.714,0.324,0.714,0.727c0,0.39-0.324,0.701-0.714,0.701h-3.909
			v2.441h4.559c0.39,0,0.715,0.324,0.715,0.714c0,0.403-0.325,0.714-0.715,0.714h-5.35C182.82,79.617,182.469,79.268,182.469,78.813
			z"/>
		<path fill="#121B21" d="M190.392,71.281c0-0.441,0.351-0.805,0.805-0.805h0.17c0.35,0,0.584,0.182,0.74,0.428l2.752,4.312
			l2.766-4.324c0.17-0.272,0.403-0.415,0.728-0.415h0.169c0.455,0,0.805,0.363,0.805,0.805v7.609c0,0.441-0.35,0.792-0.805,0.792
			c-0.428,0-0.792-0.364-0.792-0.792v-5.454l-2.221,3.337c-0.169,0.26-0.376,0.416-0.675,0.416c-0.286,0-0.494-0.156-0.662-0.416
			l-2.208-3.311v5.44c0,0.442-0.351,0.779-0.792,0.779s-0.779-0.337-0.779-0.779V71.281z"/>
		<path fill="#121B21" d="M200.368,78.579l3.376-7.532c0.182-0.402,0.506-0.648,0.961-0.648h0.078c0.454,0,0.766,0.246,0.947,0.648
			l3.377,7.532c0.064,0.116,0.09,0.233,0.09,0.337c0,0.43-0.324,0.767-0.752,0.767c-0.377,0-0.637-0.221-0.779-0.559l-0.74-1.7
			h-4.415l-0.767,1.752c-0.129,0.325-0.402,0.507-0.74,0.507c-0.415,0-0.74-0.325-0.74-0.74
			C200.263,78.826,200.302,78.709,200.368,78.579z M206.315,76.008l-1.597-3.675l-1.598,3.675H206.315z"/>
		<path fill="#121B21" d="M213.264,71.333c0-0.454,0.351-0.806,0.806-0.806h2.584c2.856,0,4.83,1.961,4.83,4.52v0.025
			c0,2.559-1.974,4.545-4.83,4.545h-2.584c-0.455,0-0.806-0.35-0.806-0.805V71.333z M216.654,78.163
			c1.908,0,3.155-1.285,3.155-3.064v-0.026c0-1.778-1.247-3.09-3.155-3.09h-1.793v6.181H216.654z"/>
		<path fill="#121B21" d="M222.642,78.813v-7.479c0-0.454,0.35-0.806,0.805-0.806h5.285c0.39,0,0.715,0.325,0.715,0.715
			c0,0.402-0.325,0.715-0.715,0.715h-4.493v2.363h3.909c0.389,0,0.714,0.324,0.714,0.727c0,0.39-0.325,0.701-0.714,0.701h-3.909
			v2.441h4.558c0.391,0,0.715,0.324,0.715,0.714c0,0.403-0.324,0.714-0.715,0.714h-5.35
			C222.992,79.617,222.642,79.268,222.642,78.813z"/>
		<path fill="#121B21" d="M233.773,71.256c0-0.442,0.351-0.793,0.805-0.793c0.441,0,0.793,0.351,0.793,0.793v7.635
			c0,0.441-0.352,0.792-0.793,0.792c-0.454,0-0.805-0.351-0.805-0.792V71.256z"/>
		<path fill="#121B21" d="M237.019,71.281c0-0.441,0.352-0.805,0.806-0.805h0.169c0.39,0,0.61,0.194,0.831,0.467l4.545,5.883v-5.584
			c0-0.429,0.351-0.779,0.778-0.779c0.442,0,0.793,0.351,0.793,0.779v7.635c0,0.441-0.338,0.793-0.779,0.793h-0.064
			c-0.377,0-0.611-0.195-0.832-0.48l-4.674-6.051v5.765c0,0.429-0.352,0.779-0.779,0.779c-0.441,0-0.793-0.351-0.793-0.779V71.281z"
			/>
		<path fill="#121B21" d="M246.5,71.333c0-0.454,0.351-0.806,0.806-0.806h5.298c0.402,0,0.728,0.325,0.728,0.729
			c0,0.402-0.325,0.727-0.728,0.727h-4.507v2.48h3.922c0.402,0,0.728,0.324,0.728,0.727s-0.325,0.728-0.728,0.728h-3.922v2.974
			c0,0.441-0.35,0.792-0.791,0.792c-0.455,0-0.806-0.351-0.806-0.792V71.333z"/>
		<path fill="#121B21" d="M253.761,75.099v-0.026c0-2.558,1.974-4.7,4.766-4.7s4.74,2.116,4.74,4.675v0.025
			c0,2.559-1.975,4.701-4.766,4.701C255.708,79.773,253.761,77.656,253.761,75.099z M261.591,75.099v-0.026
			c0-1.766-1.285-3.232-3.09-3.232c-1.806,0-3.064,1.441-3.064,3.207v0.025c0,1.767,1.285,3.221,3.09,3.221
			S261.591,76.865,261.591,75.099z"/>
		<path fill="#121B21" d="M264.424,71.333c0-0.454,0.351-0.806,0.806-0.806h3.246c1.143,0,2.039,0.338,2.623,0.91
			c0.48,0.493,0.753,1.168,0.753,1.961v0.025c0,1.454-0.845,2.338-2.064,2.714l1.739,2.194c0.156,0.195,0.26,0.363,0.26,0.61
			c0,0.441-0.376,0.74-0.766,0.74c-0.363,0-0.598-0.169-0.779-0.415l-2.207-2.818h-2.014v2.441c0,0.441-0.35,0.792-0.791,0.792
			c-0.455,0-0.806-0.351-0.806-0.792V71.333z M268.359,75.033c1.143,0,1.87-0.597,1.87-1.519v-0.026
			c0-0.974-0.701-1.506-1.883-1.506h-2.325v3.051H268.359z"/>
		<path fill="#121B21" d="M273.035,71.281c0-0.441,0.352-0.805,0.806-0.805h0.169c0.351,0,0.584,0.182,0.74,0.428l2.753,4.312
			l2.766-4.324c0.169-0.272,0.403-0.415,0.728-0.415h0.168c0.455,0,0.806,0.363,0.806,0.805v7.609c0,0.441-0.351,0.792-0.806,0.792
			c-0.428,0-0.791-0.364-0.791-0.792v-5.454l-2.221,3.337c-0.169,0.26-0.377,0.416-0.676,0.416c-0.285,0-0.493-0.156-0.662-0.416
			l-2.207-3.311v5.44c0,0.442-0.352,0.779-0.793,0.779s-0.779-0.337-0.779-0.779V71.281z"/>
		<path fill="#121B21" d="M283.011,78.579l3.375-7.532c0.182-0.402,0.507-0.648,0.961-0.648h0.078c0.455,0,0.767,0.246,0.948,0.648
			l3.376,7.532c0.064,0.116,0.091,0.233,0.091,0.337c0,0.43-0.324,0.767-0.753,0.767c-0.377,0-0.637-0.221-0.779-0.559l-0.74-1.7
			h-4.414l-0.767,1.752c-0.13,0.325-0.403,0.507-0.74,0.507c-0.415,0-0.74-0.325-0.74-0.74
			C282.907,78.826,282.946,78.709,283.011,78.579z M288.958,76.008l-1.598-3.675l-1.598,3.675H288.958z"/>
		<path fill="#121B21" d="M291.999,75.099v-0.026c0-2.584,1.935-4.7,4.688-4.7c1.402,0,2.325,0.415,3.116,1.026
			c0.17,0.129,0.313,0.35,0.313,0.636c0,0.441-0.352,0.779-0.793,0.779c-0.221,0-0.376-0.078-0.48-0.155
			c-0.623-0.507-1.298-0.818-2.168-0.818c-1.727,0-3,1.428-3,3.207v0.025c0,1.779,1.26,3.221,3,3.221
			c0.961,0,1.609-0.312,2.272-0.869c0.116-0.104,0.286-0.183,0.48-0.183c0.402,0,0.753,0.338,0.753,0.74
			c0,0.247-0.117,0.441-0.26,0.571c-0.857,0.754-1.831,1.221-3.299,1.221C293.972,79.773,291.999,77.709,291.999,75.099z"/>
		<path fill="#121B21" d="M301.298,71.256c0-0.442,0.35-0.793,0.805-0.793c0.441,0,0.792,0.351,0.792,0.793v7.635
			c0,0.441-0.351,0.792-0.792,0.792c-0.455,0-0.805-0.351-0.805-0.792V71.256z"/>
		<path fill="#121B21" d="M304.142,75.099v-0.026c0-2.558,1.974-4.7,4.766-4.7s4.739,2.116,4.739,4.675v0.025
			c0,2.559-1.974,4.701-4.765,4.701C306.089,79.773,304.142,77.656,304.142,75.099z M311.972,75.099v-0.026
			c0-1.766-1.285-3.232-3.09-3.232c-1.806,0-3.064,1.441-3.064,3.207v0.025c0,1.767,1.285,3.221,3.09,3.221
			S311.972,76.865,311.972,75.099z M308.453,69.438c0-0.092,0.053-0.208,0.104-0.286l0.74-1.143
			c0.143-0.233,0.351-0.376,0.623-0.376c0.415,0,0.936,0.26,0.936,0.506c0,0.143-0.092,0.273-0.222,0.39l-0.869,0.831
			c-0.313,0.285-0.559,0.351-0.922,0.351C308.623,69.71,308.453,69.605,308.453,69.438z"/>
		<path fill="#121B21" d="M314.805,71.281c0-0.441,0.351-0.805,0.805-0.805h0.169c0.39,0,0.61,0.194,0.831,0.467l4.545,5.883v-5.584
			c0-0.429,0.351-0.779,0.779-0.779c0.441,0,0.792,0.351,0.792,0.779v7.635c0,0.441-0.338,0.793-0.779,0.793h-0.064
			c-0.377,0-0.61-0.195-0.831-0.48l-4.675-6.051v5.765c0,0.429-0.351,0.779-0.779,0.779c-0.441,0-0.792-0.351-0.792-0.779V71.281z"
			/>
		<path fill="#121B21" d="M203.971,94.398v-7.479c0-0.454,0.351-0.806,0.806-0.806h5.285c0.389,0,0.714,0.325,0.714,0.715
			c0,0.402-0.325,0.715-0.714,0.715h-4.494v2.363h3.909c0.39,0,0.714,0.324,0.714,0.727c0,0.39-0.324,0.701-0.714,0.701h-3.909
			v2.441h4.559c0.39,0,0.715,0.324,0.715,0.714c0,0.403-0.325,0.714-0.715,0.714h-5.35
			C204.322,95.203,203.971,94.854,203.971,94.398z"/>
		<path fill="#121B21" d="M211.894,86.919c0-0.454,0.351-0.806,0.805-0.806h2.584c2.857,0,4.831,1.961,4.831,4.52v0.025
			c0,2.559-1.974,4.545-4.831,4.545h-2.584c-0.454,0-0.805-0.35-0.805-0.805V86.919z M215.283,93.749
			c1.91,0,3.156-1.285,3.156-3.064v-0.026c0-1.778-1.246-3.09-3.156-3.09h-1.791v6.181H215.283z"/>
		<path fill="#121B21" d="M221.128,91.348v-4.506c0-0.442,0.352-0.793,0.806-0.793c0.441,0,0.792,0.351,0.792,0.793v4.44
			c0,1.688,0.87,2.584,2.299,2.584c1.415,0,2.285-0.845,2.285-2.519v-4.506c0-0.442,0.351-0.793,0.805-0.793
			c0.441,0,0.793,0.351,0.793,0.793v4.428c0,2.713-1.533,4.077-3.909,4.077C222.635,95.347,221.128,93.982,221.128,91.348z"/>
		<path fill="#121B21" d="M229.921,90.685v-0.026c0-2.584,1.936-4.7,4.688-4.7c1.403,0,2.325,0.415,3.117,1.026
			c0.169,0.129,0.312,0.35,0.312,0.636c0,0.441-0.351,0.779-0.792,0.779c-0.221,0-0.377-0.078-0.48-0.155
			c-0.623-0.507-1.299-0.818-2.168-0.818c-1.728,0-3,1.428-3,3.207v0.025c0,1.779,1.26,3.221,3,3.221
			c0.961,0,1.609-0.312,2.271-0.869c0.117-0.104,0.286-0.183,0.48-0.183c0.402,0,0.754,0.338,0.754,0.74
			c0,0.247-0.117,0.441-0.26,0.571c-0.857,0.754-1.831,1.221-3.299,1.221C231.896,95.359,229.921,93.295,229.921,90.685z"/>
		<path fill="#121B21" d="M238.611,94.165l3.376-7.532c0.182-0.402,0.507-0.648,0.961-0.648h0.078c0.454,0,0.767,0.246,0.948,0.648
			l3.375,7.532c0.065,0.116,0.092,0.233,0.092,0.337c0,0.43-0.324,0.767-0.754,0.767c-0.376,0-0.636-0.221-0.779-0.559l-0.739-1.7
			h-4.415l-0.766,1.752c-0.131,0.325-0.403,0.507-0.74,0.507c-0.416,0-0.74-0.325-0.74-0.74
			C238.507,94.412,238.546,94.295,238.611,94.165z M244.558,91.594l-1.598-3.675l-1.597,3.675H244.558z"/>
		<path fill="#121B21" d="M249.585,87.594h-2.207c-0.416,0-0.74-0.337-0.74-0.74c0-0.402,0.324-0.74,0.74-0.74h6.037
			c0.402,0,0.728,0.338,0.728,0.74c0,0.403-0.325,0.74-0.728,0.74h-2.221v6.883c0,0.441-0.363,0.792-0.805,0.792
			s-0.805-0.351-0.805-0.792V87.594z"/>
		<path fill="#121B21" d="M255.08,86.842c0-0.442,0.352-0.793,0.805-0.793c0.442,0,0.793,0.351,0.793,0.793v7.635
			c0,0.441-0.351,0.792-0.793,0.792c-0.453,0-0.805-0.351-0.805-0.792V86.842z"/>
		<path fill="#121B21" d="M260.962,94.684l-3.181-7.479c-0.052-0.117-0.091-0.234-0.091-0.377c0-0.429,0.35-0.779,0.805-0.779
			c0.416,0,0.688,0.234,0.818,0.572l2.623,6.557l2.662-6.609c0.104-0.272,0.389-0.52,0.766-0.52c0.441,0,0.792,0.338,0.792,0.766
			c0,0.117-0.038,0.248-0.077,0.338l-3.195,7.531c-0.168,0.403-0.467,0.65-0.922,0.65h-0.09
			C261.43,95.334,261.132,95.087,260.962,94.684z"/>
		<path fill="#121B21" d="M266.275,90.685v-0.026c0-2.558,1.975-4.7,4.766-4.7c2.793,0,4.74,2.116,4.74,4.675v0.025
			c0,2.559-1.975,4.701-4.766,4.701C268.223,95.359,266.275,93.242,266.275,90.685z M274.105,90.685v-0.026
			c0-1.766-1.285-3.232-3.09-3.232s-3.064,1.441-3.064,3.207v0.025c0,1.767,1.285,3.221,3.09,3.221S274.105,92.451,274.105,90.685z"
			/>
	</g>
	<g>
		<path fill="#121B21" d="M156.212,48.752c-1.078-0.768-1.848-2.075-1.848-3.615c0-2.46,2-4.383,4.459-4.383
			c1.307,0,2.156,0.384,2.77,0.846c4.461,3.537,9.229,5.536,15.072,5.536s9.535-2.769,9.535-6.766v-0.154
			c0-3.845-2.152-5.92-12.15-8.229c-11.457-2.767-17.918-6.15-17.918-16.07v-0.153c0-9.229,7.691-15.612,18.381-15.612
			c6.766,0,12.227,1.77,17.07,5c1.076,0.616,2.076,1.922,2.076,3.769c0,2.46-1.998,4.382-4.459,4.382
			c-0.924,0-1.691-0.23-2.461-0.691c-4.152-2.691-8.152-4.075-12.381-4.075c-5.537,0-8.766,2.845-8.766,6.381v0.155
			c0,4.152,2.459,5.998,12.84,8.458c11.381,2.769,17.227,6.845,17.227,15.766v0.152c0,10.072-7.922,16.071-19.225,16.071
			C169.13,55.518,162.208,53.212,156.212,48.752z"/>
		<path fill="#121B21" d="M202.732,5.227c0-2.614,2.076-4.691,4.768-4.691c2.611,0,4.688,2.077,4.688,4.691v45.216
			c0,2.614-2.076,4.693-4.688,4.693c-2.691,0-4.768-2.079-4.768-4.693V5.227z"/>
		<path fill="#121B21" d="M272.878,27.551c0.02-0.064,0.02-0.136,0.035-0.201c0.051-0.22,0.1-0.438,0.117-0.669
			c0-0.051-0.006-0.1-0.008-0.149c-0.004-0.116-0.006-0.23-0.014-0.351c-0.01-0.17-0.01-0.34-0.029-0.5v-0.11
			c0-0.07,0-0.15-0.01-0.219c-0.061-0.881-0.16-1.741-0.281-2.591c-0.469-3.17-1.41-6.12-2.75-8.779
			c-0.641-1.28-1.379-2.491-2.209-3.63c-3.621-4.972-8.932-8.491-15.482-9.79c-0.5-0.102-1-0.182-1.5-0.25
			c-0.459-0.071-0.92-0.121-1.389-0.171c-0.361-0.039-0.721-0.061-1.09-0.079c-0.432-0.031-0.881-0.051-1.33-0.051
			C246.769,0,246.587,0,246.417,0c-0.629,0-1.238,0.021-1.85,0.062c-0.369,0.019-0.74,0.04-1.1,0.079
			c-0.48,0.05-0.939,0.1-1.4,0.171c-0.16,0.02-0.299,0.049-0.439,0.068c-0.35,0.062-0.699,0.12-1.041,0.182h-0.01
			c-6.549,1.31-11.859,4.818-15.459,9.79c0,0.02-0.01,0.028-0.01,0.049c-3.561,4.68-5.541,10.65-5.541,17.28v0.15
			c0,7.51,2.861,14.43,7.74,19.489c0,0.06,0.01,0.131,0.029,0.19c4.381,4.699,10.432,7.761,17.49,8.119
			c0.391,0.021,0.76,0.031,1.141,0.031c0.199,0.009,0.4,0.009,0.6,0.009c0.1,0,0.201,0,0.301-0.009h0.141
			c0.209,0.009,0.42,0.009,0.629,0.009c0.109,0,0.211,0,0.32-0.009c0.4,0,0.789-0.011,1.189-0.031
			c7.092-0.27,12.021-2.148,16.561-5.42c0.721-0.54,1.48-1.449,1.781-2.699c0.09-0.35,0.139-0.73,0.139-1.14
			c0-2.54-2.068-4.69-4.689-4.69c-0.32,0-0.609,0.029-0.891,0.1c-0.799,0.171-1.459,0.571-2.029,0.97
			c-2.23,1.641-4.59,2.92-7.551,3.621c-0.02,0.009-0.039,0.02-0.07,0.02c-1.469,0.35-3.09,0.551-4.91,0.58
			c-0.18,0.011-0.359,0.011-0.539,0.011c-0.01,0-0.01,0-0.02,0c-0.17,0-0.342,0-0.5-0.011c-0.211,0-0.42-0.011-0.631-0.029
			c-1.141-0.081-2.24-0.271-3.311-0.57c-6.74-1.89-11.709-8-12.789-15.381h13.922h24.74h0.219c1.74,0,3.244-1.054,3.971-2.59
			c0.018-0.037,0.031-0.075,0.049-0.112c0.047-0.105,0.102-0.207,0.141-0.317c0.047-0.135,0.094-0.261,0.133-0.402
			c0.002-0.005,0.004-0.009,0.006-0.014C272.878,27.553,272.878,27.553,272.878,27.551z M243.621,22.761h-13.572
			c0.721-3.21,2.141-6.04,4.131-8.301c3.039-3.47,7.439-5.629,12.77-5.819c5.07,0.2,9.271,2.35,12.16,5.819
			c1.9,2.261,3.26,5.091,3.951,8.301H243.621z"/>
		<g>
			<path fill="#121B21" d="M323.119,27.681v0.15c0,7.909-3.189,14.909-8.648,19.771c-4.99,4.469-11.871,7.148-19.951,7.148H279.14
				c-0.15,0-0.291-0.01-0.432-0.02c-0.289-0.029-0.559-0.069-0.83-0.15c-0.199-0.05-0.389-0.12-0.58-0.2
				c-0.559-0.239-1.059-0.579-1.479-1c-0.211-0.21-0.4-0.438-0.57-0.689c-0.17-0.249-0.311-0.521-0.43-0.8
				c-0.08-0.189-0.15-0.38-0.201-0.579c-0.08-0.271-0.119-0.551-0.148-0.83c-0.012-0.141-0.021-0.28-0.021-0.42v-0.08
				c0.031-1.61,0.801-3,1.98-3.841c0.77-0.539,1.699-0.85,2.711-0.85h15.639c9.641,0,17.461-7.81,17.461-17.46
				c0-9.641-7.82-17.451-17.461-17.451H279.14c-1.012,0-1.941-0.31-2.711-0.85c-1.199-0.84-1.98-2.239-1.98-3.84
				c0-0.839,0.201-1.629,0.561-2.3c0.109-0.2,0.23-0.391,0.369-0.57V2.812c0.141-0.182,0.281-0.352,0.441-0.511
				c0.279-0.29,0.59-0.529,0.939-0.73c0,0,0-0.009,0.01-0.009c0.461-0.261,0.971-0.451,1.52-0.562
				c0.141-0.029,0.281-0.049,0.42-0.059c0.141-0.011,0.281-0.021,0.432-0.021h15.379c8.1,0,14.99,2.66,19.99,7.11
				C319.949,12.852,323.119,19.78,323.119,27.681z"/>
		</g>
	</g>
	<g>
		<path fill="#00AFC4" d="M109.324,43.075c-0.577,0.001-1.191,0.103-1.828,0.319L76.005,54.088
			c-1.654,0.561-3.835,0.842-6.017,0.842c-2.181,0-4.361-0.281-6.016-0.842L33.117,43.61c-0.637-0.216-1.251-0.319-1.829-0.319
			c-2.421,0-4.187,1.809-4.187,4.631v13.133c0,3.494,2.463,7.805,5.474,9.579c0,0,4.241,2.499,10.919,4.417
			c7.688,2.218,16.768,3.495,26.494,3.495c9.728,0,18.808-1.277,26.495-3.495c7.027-2.02,11.607-4.823,11.607-4.823
			c2.981-1.823,5.421-6.175,5.421-9.669V47.705C113.512,44.883,111.746,43.075,109.324,43.075z"/>
		<path fill="#00AFC4" d="M137.482,21.126L76.021,0.822C74.363,0.274,72.176,0,69.988,0c-2.187,0-4.373,0.274-6.033,0.822
			L2.494,21.126c-3.318,1.096-3.326,2.912-0.018,4.036l10.223,3.472v13.676c-2.242,0.981-3.813,3.217-3.813,5.821
			c0,2.253,1.176,4.226,2.942,5.354L6.981,80.289h16.52l-4.847-26.803c1.766-1.129,2.94-3.102,2.94-5.354
			c0-2.604-1.569-4.84-3.812-5.821V30.36l46.189,15.687c1.654,0.562,3.835,0.842,6.016,0.842c2.182,0,4.361-0.28,6.017-0.843
			L137.5,25.163C140.809,24.039,140.801,22.222,137.482,21.126z M69.988,39.307c-1.684,0-2.979-0.237-3.577-0.44L20.334,23.218
			l46-15.195c1.617-0.534,5.693-0.534,7.31,0l45.999,15.196L73.566,38.865C72.968,39.068,71.672,39.307,69.988,39.307z
			 M12.957,75.206l2.284-11.037l2.283,11.037H12.957z"/>
	</g>
</g>
</svg>
