<?xml version="1.0" encoding="utf-8"?>
<!-- Generator: Adobe Illustrator 16.0.0, SVG Export Plug-In . SVG Version: 6.00 Build 0)  -->
<!DOCTYPE svg PUBLIC "-//W3C//DTD SVG 1.1//EN" "http://www.w3.org/Graphics/SVG/1.1/DTD/svg11.dtd">
<svg version="1.1" id="Capa_1" xmlns="http://www.w3.org/2000/svg" xmlns:xlink="http://www.w3.org/1999/xlink" x="0px" y="0px"
	 width="323.119px" height="98.775px" viewBox="0 0 323.119 98.775" enable-background="new 0 0 323.119 98.775"
	 xml:space="preserve">
<g>
	<g>
		<path fill="#FFFFFF" d="M156.494,78.567c-0.183-0.13-0.313-0.351-0.313-0.61c0-0.416,0.338-0.74,0.754-0.74
			c0.221,0,0.363,0.064,0.467,0.143c0.754,0.598,1.559,0.936,2.545,0.936c0.987,0,1.61-0.468,1.61-1.143v-0.026
			c0-0.649-0.363-1-2.052-1.39c-1.935-0.467-3.025-1.039-3.025-2.714v-0.026c0-1.558,1.299-2.636,3.104-2.636
			c1.143,0,2.064,0.299,2.883,0.845c0.182,0.104,0.351,0.324,0.351,0.636c0,0.415-0.338,0.74-0.753,0.74
			c-0.156,0-0.286-0.039-0.416-0.116c-0.701-0.455-1.376-0.689-2.09-0.689c-0.936,0-1.48,0.48-1.48,1.078v0.026
			c0,0.701,0.415,1.013,2.168,1.429c1.922,0.467,2.908,1.155,2.908,2.662v0.025c0,1.701-1.337,2.714-3.246,2.714
			C158.674,79.71,157.505,79.32,156.494,78.567z"/>
		<path fill="#FFFFFF" d="M164.351,71.218c0-0.442,0.351-0.792,0.805-0.792c0.441,0,0.793,0.35,0.793,0.792v7.636
			c0,0.441-0.352,0.791-0.793,0.791c-0.454,0-0.805-0.35-0.805-0.791V71.218z"/>
		<path fill="#FFFFFF" d="M167.365,78.567c-0.183-0.13-0.313-0.351-0.313-0.61c0-0.416,0.338-0.74,0.754-0.74
			c0.221,0,0.363,0.064,0.467,0.143c0.754,0.598,1.559,0.936,2.545,0.936c0.987,0,1.61-0.468,1.61-1.143v-0.026
			c0-0.649-0.363-1-2.052-1.39c-1.935-0.467-3.025-1.039-3.025-2.714v-0.026c0-1.558,1.299-2.636,3.104-2.636
			c1.143,0,2.064,0.299,2.883,0.845c0.182,0.104,0.351,0.324,0.351,0.636c0,0.415-0.338,0.74-0.753,0.74
			c-0.156,0-0.286-0.039-0.416-0.116c-0.701-0.455-1.376-0.689-2.09-0.689c-0.936,0-1.48,0.48-1.48,1.078v0.026
			c0,0.701,0.415,1.013,2.168,1.429c1.922,0.467,2.908,1.155,2.908,2.662v0.025c0,1.701-1.337,2.714-3.246,2.714
			C169.545,79.71,168.376,79.32,167.365,78.567z"/>
		<path fill="#FFFFFF" d="M177.169,71.971h-2.207c-0.416,0-0.74-0.338-0.74-0.74s0.324-0.74,0.74-0.74H181
			c0.402,0,0.728,0.338,0.728,0.74s-0.325,0.74-0.728,0.74h-2.221v6.883c0,0.441-0.363,0.791-0.806,0.791
			c-0.441,0-0.805-0.35-0.805-0.791V71.971z"/>
		<path fill="#FFFFFF" d="M182.573,78.775v-7.48c0-0.454,0.351-0.805,0.806-0.805h5.285c0.389,0,0.714,0.324,0.714,0.715
			c0,0.402-0.325,0.714-0.714,0.714h-4.494v2.363h3.909c0.39,0,0.714,0.325,0.714,0.728c0,0.389-0.324,0.701-0.714,0.701h-3.909
			v2.441h4.559c0.39,0,0.715,0.324,0.715,0.713c0,0.403-0.325,0.715-0.715,0.715h-5.35C182.923,79.58,182.573,79.229,182.573,78.775
			z"/>
		<path fill="#FFFFFF" d="M190.496,71.244c0-0.441,0.351-0.806,0.805-0.806h0.17c0.35,0,0.584,0.182,0.74,0.429l2.752,4.311
			l2.766-4.324c0.17-0.271,0.403-0.415,0.728-0.415h0.169c0.455,0,0.805,0.364,0.805,0.806v7.609c0,0.441-0.35,0.791-0.805,0.791
			c-0.428,0-0.792-0.363-0.792-0.791v-5.455l-2.221,3.338c-0.169,0.26-0.376,0.416-0.675,0.416c-0.286,0-0.494-0.156-0.662-0.416
			l-2.208-3.311v5.439c0,0.442-0.351,0.779-0.792,0.779s-0.779-0.337-0.779-0.779V71.244z"/>
		<path fill="#FFFFFF" d="M200.471,78.541l3.376-7.531c0.182-0.402,0.506-0.649,0.961-0.649h0.078c0.454,0,0.766,0.247,0.947,0.649
			l3.377,7.531c0.064,0.117,0.09,0.234,0.09,0.338c0,0.429-0.324,0.766-0.752,0.766c-0.377,0-0.637-0.221-0.779-0.559l-0.74-1.7
			h-4.415l-0.767,1.753c-0.129,0.324-0.402,0.506-0.74,0.506c-0.415,0-0.74-0.324-0.74-0.74
			C200.367,78.788,200.406,78.671,200.471,78.541z M206.418,75.971l-1.597-3.676l-1.598,3.676H206.418z"/>
		<path fill="#FFFFFF" d="M213.368,71.295c0-0.454,0.351-0.805,0.806-0.805h2.584c2.856,0,4.83,1.961,4.83,4.52v0.025
			c0,2.559-1.974,4.545-4.83,4.545h-2.584c-0.455,0-0.806-0.351-0.806-0.805V71.295z M216.757,78.125
			c1.908,0,3.155-1.285,3.155-3.064v-0.025c0-1.779-1.247-3.09-3.155-3.09h-1.793v6.18H216.757z"/>
		<path fill="#FFFFFF" d="M222.746,78.775v-7.48c0-0.454,0.35-0.805,0.805-0.805h5.285c0.39,0,0.715,0.324,0.715,0.715
			c0,0.402-0.325,0.714-0.715,0.714h-4.493v2.363h3.909c0.389,0,0.714,0.325,0.714,0.728c0,0.389-0.325,0.701-0.714,0.701h-3.909
			v2.441h4.558c0.391,0,0.715,0.324,0.715,0.713c0,0.403-0.324,0.715-0.715,0.715h-5.35
			C223.095,79.58,222.746,79.229,222.746,78.775z"/>
		<path fill="#FFFFFF" d="M233.876,71.218c0-0.442,0.351-0.792,0.805-0.792c0.441,0,0.793,0.35,0.793,0.792v7.636
			c0,0.441-0.352,0.791-0.793,0.791c-0.454,0-0.805-0.35-0.805-0.791V71.218z"/>
		<path fill="#FFFFFF" d="M237.123,71.244c0-0.441,0.352-0.806,0.806-0.806h0.169c0.39,0,0.61,0.194,0.831,0.468l4.545,5.882v-5.583
			c0-0.43,0.351-0.779,0.778-0.779c0.442,0,0.793,0.35,0.793,0.779v7.635c0,0.441-0.338,0.792-0.779,0.792h-0.064
			c-0.377,0-0.611-0.194-0.832-0.48l-4.674-6.051v5.765c0,0.43-0.352,0.779-0.779,0.779c-0.441,0-0.793-0.35-0.793-0.779V71.244z"/>
		<path fill="#FFFFFF" d="M246.604,71.295c0-0.454,0.351-0.805,0.806-0.805h5.298c0.402,0,0.728,0.324,0.728,0.728
			c0,0.402-0.325,0.728-0.728,0.728h-4.507v2.479h3.922c0.402,0,0.728,0.325,0.728,0.728s-0.325,0.727-0.728,0.727h-3.922v2.975
			c0,0.441-0.35,0.791-0.791,0.791c-0.455,0-0.806-0.35-0.806-0.791V71.295z"/>
		<path fill="#FFFFFF" d="M253.865,75.061v-0.025c0-2.559,1.974-4.701,4.766-4.701s4.74,2.117,4.74,4.676v0.025
			c0,2.559-1.975,4.701-4.766,4.701C255.812,79.736,253.865,77.619,253.865,75.061z M261.695,75.061v-0.025
			c0-1.766-1.285-3.233-3.09-3.233c-1.806,0-3.064,1.441-3.064,3.208v0.025c0,1.766,1.285,3.221,3.09,3.221
			S261.695,76.827,261.695,75.061z"/>
		<path fill="#FFFFFF" d="M264.528,71.295c0-0.454,0.351-0.805,0.806-0.805h3.246c1.143,0,2.039,0.338,2.623,0.909
			c0.48,0.493,0.753,1.169,0.753,1.961v0.026c0,1.453-0.845,2.337-2.064,2.713l1.739,2.195c0.156,0.194,0.26,0.363,0.26,0.609
			c0,0.441-0.376,0.74-0.766,0.74c-0.363,0-0.598-0.168-0.779-0.415l-2.207-2.817h-2.014v2.441c0,0.441-0.35,0.791-0.791,0.791
			c-0.455,0-0.806-0.35-0.806-0.791V71.295z M268.462,74.996c1.143,0,1.87-0.598,1.87-1.52v-0.025c0-0.975-0.701-1.506-1.883-1.506
			h-2.325v3.051H268.462z"/>
		<path fill="#FFFFFF" d="M273.138,71.244c0-0.441,0.352-0.806,0.806-0.806h0.169c0.351,0,0.584,0.182,0.74,0.429l2.753,4.311
			l2.766-4.324c0.169-0.271,0.403-0.415,0.728-0.415h0.168c0.455,0,0.806,0.364,0.806,0.806v7.609c0,0.441-0.351,0.791-0.806,0.791
			c-0.428,0-0.791-0.363-0.791-0.791v-5.455l-2.221,3.338c-0.169,0.26-0.377,0.416-0.676,0.416c-0.285,0-0.493-0.156-0.662-0.416
			l-2.207-3.311v5.439c0,0.442-0.352,0.779-0.793,0.779s-0.779-0.337-0.779-0.779V71.244z"/>
		<path fill="#FFFFFF" d="M283.115,78.541l3.375-7.531c0.182-0.402,0.507-0.649,0.961-0.649h0.078c0.455,0,0.767,0.247,0.948,0.649
			l3.376,7.531c0.064,0.117,0.091,0.234,0.091,0.338c0,0.429-0.324,0.766-0.753,0.766c-0.377,0-0.637-0.221-0.779-0.559l-0.74-1.7
			h-4.414l-0.767,1.753c-0.13,0.324-0.403,0.506-0.74,0.506c-0.415,0-0.74-0.324-0.74-0.74
			C283.01,78.788,283.049,78.671,283.115,78.541z M289.062,75.971l-1.598-3.676l-1.598,3.676H289.062z"/>
		<path fill="#FFFFFF" d="M292.102,75.061v-0.025c0-2.584,1.935-4.701,4.688-4.701c1.402,0,2.325,0.416,3.116,1.026
			c0.17,0.13,0.313,0.351,0.313,0.636c0,0.441-0.352,0.779-0.793,0.779c-0.221,0-0.376-0.078-0.48-0.155
			c-0.623-0.507-1.298-0.818-2.168-0.818c-1.727,0-3,1.429-3,3.208v0.025c0,1.779,1.26,3.221,3,3.221
			c0.961,0,1.609-0.313,2.272-0.87c0.116-0.104,0.286-0.183,0.48-0.183c0.402,0,0.753,0.338,0.753,0.74
			c0,0.247-0.117,0.441-0.26,0.572c-0.857,0.753-1.831,1.221-3.299,1.221C294.076,79.736,292.102,77.672,292.102,75.061z"/>
		<path fill="#FFFFFF" d="M301.402,71.218c0-0.442,0.35-0.792,0.805-0.792c0.441,0,0.792,0.35,0.792,0.792v7.636
			c0,0.441-0.351,0.791-0.792,0.791c-0.455,0-0.805-0.35-0.805-0.791V71.218z"/>
		<path fill="#FFFFFF" d="M304.246,75.061v-0.025c0-2.559,1.974-4.701,4.766-4.701s4.739,2.117,4.739,4.676v0.025
			c0,2.559-1.974,4.701-4.765,4.701C306.193,79.736,304.246,77.619,304.246,75.061z M312.076,75.061v-0.025
			c0-1.766-1.285-3.233-3.09-3.233c-1.806,0-3.064,1.441-3.064,3.208v0.025c0,1.766,1.285,3.221,3.09,3.221
			S312.076,76.827,312.076,75.061z M308.556,69.4c0-0.092,0.053-0.209,0.104-0.287l0.74-1.143c0.143-0.232,0.351-0.376,0.623-0.376
			c0.415,0,0.936,0.26,0.936,0.507c0,0.143-0.092,0.272-0.222,0.389l-0.869,0.832c-0.313,0.285-0.559,0.35-0.922,0.35
			C308.726,69.672,308.556,69.568,308.556,69.4z"/>
		<path fill="#FFFFFF" d="M314.909,71.244c0-0.441,0.351-0.806,0.805-0.806h0.169c0.39,0,0.61,0.194,0.831,0.468l4.545,5.882v-5.583
			c0-0.43,0.351-0.779,0.779-0.779c0.441,0,0.792,0.35,0.792,0.779v7.635c0,0.441-0.338,0.792-0.779,0.792h-0.064
			c-0.377,0-0.61-0.194-0.831-0.48l-4.675-6.051v5.765c0,0.43-0.351,0.779-0.779,0.779c-0.441,0-0.792-0.35-0.792-0.779V71.244z"/>
		<path fill="#FFFFFF" d="M204.075,94.361v-7.48c0-0.454,0.351-0.805,0.806-0.805h5.285c0.389,0,0.714,0.324,0.714,0.715
			c0,0.402-0.325,0.714-0.714,0.714h-4.494v2.363h3.909c0.39,0,0.714,0.325,0.714,0.728c0,0.389-0.324,0.701-0.714,0.701h-3.909
			v2.441h4.559c0.39,0,0.715,0.324,0.715,0.713c0,0.403-0.325,0.715-0.715,0.715h-5.35
			C204.425,95.166,204.075,94.815,204.075,94.361z"/>
		<path fill="#FFFFFF" d="M211.998,86.881c0-0.454,0.351-0.805,0.805-0.805h2.584c2.857,0,4.831,1.961,4.831,4.52v0.025
			c0,2.559-1.974,4.545-4.831,4.545h-2.584c-0.454,0-0.805-0.351-0.805-0.805V86.881z M215.386,93.711
			c1.91,0,3.156-1.285,3.156-3.064v-0.025c0-1.779-1.246-3.09-3.156-3.09h-1.791v6.18H215.386z"/>
		<path fill="#FFFFFF" d="M221.232,91.31v-4.506c0-0.442,0.352-0.792,0.806-0.792c0.441,0,0.792,0.35,0.792,0.792v4.44
			c0,1.688,0.87,2.584,2.299,2.584c1.415,0,2.285-0.844,2.285-2.519v-4.506c0-0.442,0.351-0.792,0.805-0.792
			c0.441,0,0.793,0.35,0.793,0.792v4.428c0,2.714-1.533,4.077-3.909,4.077C222.739,95.309,221.232,93.945,221.232,91.31z"/>
		<path fill="#FFFFFF" d="M230.025,90.646v-0.025c0-2.584,1.936-4.701,4.688-4.701c1.403,0,2.325,0.416,3.117,1.026
			c0.169,0.13,0.312,0.351,0.312,0.636c0,0.441-0.351,0.779-0.792,0.779c-0.221,0-0.377-0.078-0.48-0.155
			c-0.623-0.507-1.299-0.818-2.168-0.818c-1.728,0-3,1.429-3,3.208v0.025c0,1.779,1.26,3.221,3,3.221
			c0.961,0,1.609-0.313,2.271-0.87c0.117-0.104,0.286-0.183,0.48-0.183c0.402,0,0.754,0.338,0.754,0.74
			c0,0.247-0.117,0.441-0.26,0.572c-0.857,0.753-1.831,1.221-3.299,1.221C232,95.322,230.025,93.258,230.025,90.646z"/>
		<path fill="#FFFFFF" d="M238.714,94.127l3.376-7.531c0.182-0.402,0.507-0.649,0.961-0.649h0.078c0.454,0,0.767,0.247,0.948,0.649
			l3.375,7.531c0.065,0.117,0.092,0.234,0.092,0.338c0,0.429-0.324,0.766-0.754,0.766c-0.376,0-0.636-0.221-0.779-0.559l-0.739-1.7
			h-4.415l-0.766,1.753c-0.131,0.324-0.403,0.506-0.74,0.506c-0.416,0-0.74-0.324-0.74-0.74
			C238.611,94.374,238.65,94.257,238.714,94.127z M244.662,91.557l-1.598-3.676l-1.597,3.676H244.662z"/>
		<path fill="#FFFFFF" d="M249.689,87.557h-2.207c-0.416,0-0.74-0.338-0.74-0.74s0.324-0.74,0.74-0.74h6.037
			c0.402,0,0.728,0.338,0.728,0.74s-0.325,0.74-0.728,0.74h-2.221v6.883c0,0.441-0.363,0.791-0.805,0.791s-0.805-0.35-0.805-0.791
			V87.557z"/>
		<path fill="#FFFFFF" d="M255.183,86.804c0-0.442,0.352-0.792,0.805-0.792c0.442,0,0.793,0.35,0.793,0.792v7.636
			c0,0.441-0.351,0.791-0.793,0.791c-0.453,0-0.805-0.35-0.805-0.791V86.804z"/>
		<path fill="#FFFFFF" d="M261.066,94.646l-3.181-7.479c-0.052-0.116-0.091-0.233-0.091-0.376c0-0.43,0.35-0.779,0.805-0.779
			c0.416,0,0.688,0.233,0.818,0.571l2.623,6.558l2.662-6.609c0.104-0.273,0.389-0.52,0.766-0.52c0.441,0,0.792,0.338,0.792,0.766
			c0,0.117-0.038,0.247-0.077,0.338l-3.195,7.531c-0.168,0.402-0.467,0.649-0.922,0.649h-0.09
			C261.534,95.296,261.236,95.049,261.066,94.646z"/>
		<path fill="#FFFFFF" d="M266.378,90.646v-0.025c0-2.559,1.975-4.701,4.766-4.701c2.793,0,4.74,2.117,4.74,4.676v0.025
			c0,2.559-1.975,4.701-4.766,4.701C268.327,95.322,266.378,93.205,266.378,90.646z M274.208,90.646v-0.025
			c0-1.766-1.285-3.233-3.09-3.233s-3.064,1.441-3.064,3.208v0.025c0,1.766,1.285,3.221,3.09,3.221S274.208,92.413,274.208,90.646z"
			/>
	</g>
	<g>
		<path fill="#FFFFFF" d="M156.316,48.715c-1.078-0.768-1.848-2.076-1.848-3.615c0-2.461,2-4.383,4.459-4.383
			c1.307,0,2.156,0.383,2.77,0.846c4.461,3.537,9.229,5.535,15.072,5.535s9.535-2.768,9.535-6.766v-0.154
			c0-3.844-2.152-5.919-12.15-8.229c-11.457-2.767-17.918-6.15-17.918-16.07v-0.153c0-9.229,7.691-15.612,18.381-15.612
			c6.766,0,12.227,1.77,17.07,5c1.076,0.616,2.076,1.922,2.076,3.769c0,2.46-1.998,4.382-4.459,4.382
			c-0.924,0-1.691-0.23-2.461-0.691c-4.152-2.691-8.152-4.075-12.381-4.075c-5.537,0-8.766,2.845-8.766,6.381v0.155
			c0,4.152,2.459,5.998,12.84,8.458c11.381,2.769,17.227,6.845,17.227,15.765v0.152c0,10.072-7.922,16.072-19.225,16.072
			C169.234,55.48,162.312,53.174,156.316,48.715z"/>
		<path fill="#FFFFFF" d="M202.835,5.189c0-2.614,2.076-4.691,4.768-4.691c2.611,0,4.688,2.077,4.688,4.691v45.215
			c0,2.615-2.076,4.693-4.688,4.693c-2.691,0-4.768-2.078-4.768-4.693V5.189z"/>
		<path fill="#FFFFFF" d="M272.982,27.513c0.02-0.064,0.02-0.136,0.035-0.201c0.051-0.22,0.1-0.438,0.117-0.669
			c0-0.051-0.006-0.1-0.008-0.149c-0.004-0.116-0.006-0.23-0.014-0.351c-0.01-0.17-0.01-0.34-0.029-0.5v-0.11
			c0-0.07,0-0.15-0.01-0.219c-0.061-0.881-0.16-1.741-0.281-2.591c-0.469-3.17-1.41-6.12-2.75-8.779
			c-0.641-1.28-1.379-2.491-2.209-3.63c-3.621-4.972-8.932-8.491-15.482-9.79c-0.5-0.102-1-0.182-1.5-0.25
			c-0.459-0.071-0.92-0.121-1.389-0.171c-0.361-0.039-0.721-0.061-1.09-0.079c-0.432-0.031-0.881-0.051-1.33-0.051
			c-0.17-0.011-0.352-0.011-0.521-0.011c-0.629,0-1.238,0.021-1.85,0.062c-0.369,0.019-0.74,0.04-1.1,0.079
			c-0.48,0.05-0.939,0.1-1.4,0.171c-0.16,0.02-0.299,0.049-0.439,0.068c-0.35,0.062-0.699,0.12-1.041,0.182h-0.01
			c-6.549,1.31-11.859,4.818-15.459,9.79c0,0.02-0.01,0.028-0.01,0.049c-3.561,4.68-5.541,10.65-5.541,17.28v0.15
			c0,7.509,2.861,14.429,7.74,19.49c0,0.059,0.01,0.131,0.029,0.189c4.381,4.699,10.432,7.762,17.49,8.119
			c0.391,0.021,0.76,0.031,1.141,0.031c0.199,0.01,0.4,0.01,0.6,0.01c0.1,0,0.201,0,0.301-0.01h0.141
			c0.209,0.01,0.42,0.01,0.629,0.01c0.109,0,0.211,0,0.32-0.01c0.4,0,0.789-0.01,1.189-0.031c7.092-0.27,12.021-2.148,16.561-5.42
			c0.721-0.539,1.48-1.449,1.781-2.699c0.09-0.35,0.139-0.73,0.139-1.139c0-2.541-2.068-4.691-4.689-4.691
			c-0.32,0-0.609,0.029-0.891,0.1c-0.799,0.172-1.459,0.572-2.029,0.971c-2.23,1.641-4.59,2.92-7.551,3.621
			c-0.02,0.008-0.039,0.02-0.07,0.02c-1.469,0.35-3.09,0.551-4.91,0.58c-0.18,0.01-0.359,0.01-0.539,0.01c-0.01,0-0.01,0-0.02,0
			c-0.17,0-0.342,0-0.5-0.01c-0.211,0-0.42-0.012-0.631-0.029c-1.141-0.082-2.24-0.271-3.311-0.57
			c-6.74-1.891-11.709-8-12.789-15.381h13.922h24.74h0.219c1.74,0,3.244-1.054,3.971-2.59c0.018-0.037,0.031-0.075,0.049-0.112
			c0.047-0.105,0.102-0.207,0.141-0.317c0.047-0.135,0.094-0.261,0.133-0.402c0.002-0.005,0.004-0.009,0.006-0.014
			C272.982,27.515,272.982,27.515,272.982,27.513z M243.724,22.723h-13.572c0.721-3.21,2.141-6.04,4.131-8.301
			c3.039-3.47,7.439-5.629,12.77-5.819c5.07,0.2,9.271,2.35,12.16,5.819c1.9,2.261,3.26,5.091,3.951,8.301H243.724z"/>
		<g>
			<path fill="#FFFFFF" d="M323.222,27.643v0.15c0,7.91-3.189,14.91-8.648,19.771c-4.99,4.469-11.871,7.148-19.951,7.148h-15.379
				c-0.15,0-0.291-0.01-0.432-0.02c-0.289-0.029-0.559-0.07-0.83-0.15c-0.199-0.051-0.389-0.121-0.58-0.201
				c-0.559-0.238-1.059-0.578-1.479-1c-0.211-0.209-0.4-0.438-0.57-0.689c-0.17-0.248-0.311-0.52-0.43-0.799
				c-0.08-0.189-0.15-0.381-0.201-0.58c-0.08-0.271-0.119-0.551-0.148-0.83c-0.012-0.141-0.021-0.279-0.021-0.42v-0.08
				c0.031-1.609,0.801-3,1.98-3.84c0.77-0.539,1.699-0.85,2.711-0.85h15.639c9.641,0,17.461-7.811,17.461-17.46
				c0-9.641-7.82-17.451-17.461-17.451h-15.639c-1.012,0-1.941-0.31-2.711-0.85c-1.199-0.84-1.98-2.239-1.98-3.84
				c0-0.839,0.201-1.629,0.561-2.3c0.109-0.2,0.23-0.391,0.369-0.57V2.774c0.141-0.182,0.281-0.352,0.441-0.511
				c0.279-0.29,0.59-0.529,0.939-0.73c0,0,0-0.009,0.01-0.009c0.461-0.261,0.971-0.451,1.52-0.562
				c0.141-0.029,0.281-0.049,0.42-0.059c0.141-0.011,0.281-0.021,0.432-0.021h15.379c8.1,0,14.99,2.66,19.99,7.11
				C320.052,12.814,323.222,19.743,323.222,27.643z"/>
		</g>
	</g>
	<g>
		<path fill="#00AFC4" d="M109.428,43.037c-0.577,0.001-1.191,0.104-1.828,0.32L76.108,54.05c-1.654,0.562-3.835,0.843-6.017,0.843
			c-2.181,0-4.361-0.281-6.016-0.843L33.221,43.572c-0.637-0.215-1.251-0.318-1.829-0.318c-2.421,0-4.187,1.809-4.187,4.63v13.133
			c0,3.494,2.463,7.806,5.474,9.579c0,0,4.241,2.499,10.919,4.418c7.688,2.217,16.768,3.494,26.494,3.494
			c9.728,0,18.808-1.277,26.495-3.494c7.027-2.02,11.607-4.824,11.607-4.824c2.981-1.822,5.421-6.174,5.421-9.668V47.668
			C113.615,44.846,111.85,43.037,109.428,43.037z"/>
		<path fill="#00AFC4" d="M137.586,21.089L76.125,0.784c-1.658-0.548-3.846-0.822-6.033-0.822c-2.187,0-4.373,0.274-6.033,0.822
			L2.598,21.089c-3.318,1.096-3.326,2.912-0.018,4.036l10.223,3.472v13.677c-2.242,0.98-3.813,3.217-3.813,5.82
			c0,2.253,1.176,4.227,2.942,5.355L7.085,80.252h16.52l-4.847-26.803c1.766-1.129,2.94-3.103,2.94-5.355
			c0-2.604-1.569-4.84-3.812-5.82V30.323l46.189,15.686c1.654,0.562,3.835,0.843,6.016,0.843c2.182,0,4.361-0.281,6.017-0.844
			l61.495-20.883C140.912,24.001,140.904,22.185,137.586,21.089z M70.092,39.269c-1.684,0-2.979-0.237-3.577-0.44L20.438,23.181
			l46-15.195c1.617-0.534,5.693-0.534,7.31,0l45.999,15.196L73.67,38.828C73.071,39.031,71.775,39.269,70.092,39.269z
			 M13.061,75.168l2.284-11.037l2.283,11.037H13.061z"/>
	</g>
</g>
</svg>
